<svg xmlns="http://www.w3.org/2000/svg" width="256" height="256"><path fill="#1976D2" fill-opacity=".016" fill-rule="evenodd" d="M0 128.004v128.004l128.25-.254 128.25-.254.254-127.75L257.008 0H0zm.485.496c0 70.4.119 99.053.265 63.672s.146-92.98 0-128S.485 58.1.485 128.5"/><path fill="#1976D2" fill-opacity=".139" fill-rule="evenodd" d="M86 46.348c-7.039 1.978-11.333 4.385-15.579 8.732L66.5 59.094l-.29 31.953L65.92 123H81V94.065c0-16.791.418-30.034.996-31.554.641-1.685 2.582-3.322 5.442-4.587 4.179-1.848 6.753-1.963 42.754-1.899 35.456.062 38.625.209 42.565 1.976 2.67 1.196 4.628 2.882 5.25 4.519.574 1.509.993 14.82.993 31.545V123h15.08l-.29-31.959-.29-31.958-4.468-4.551c-2.663-2.713-6.702-5.455-10-6.788-5.386-2.179-6.631-2.243-47.032-2.449-30.968-.158-42.642.11-46 1.053m38.856 27.129c-.263.263-1.35.623-2.417.802-3.921.654-9.538 4.052-11.686 7.068-3.417 4.798-2.97 9.797 1.27 14.199 5.011 5.203 9.196 6.77 17.977 6.73 8.759-.039 13.42-1.749 18.205-6.675 2.973-3.061 3.284-3.915 2.953-8.085-.483-6.069-4.596-10.345-12.28-12.766-5.206-1.64-12.951-2.343-14.022-1.273m.894 11.603c-2.555 1.488-2.162 4.775.729 6.092 5.292 2.412 11.664-1.885 8.481-5.72-1.382-1.665-6.626-1.877-9.21-.372m51.571 43.632c-.644 2.724-1.516 3.862-3.275 4.277-3.104.733-3.685 2.595-1.278 4.098 1.719 1.074 1.778 1.535.611 4.8-.71 1.987-1.311 4.223-1.335 4.969-.052 1.591-5.843 9.144-7.012 9.144-.439 0 .285-3.713 1.611-8.25 2.745-9.401 2.73-12.25-.065-12.25-1.529 0-2.671 2.069-5.573 10.097-3.835 10.607-6.788 15.681-10.182 17.498-2.833 1.516-4.025-.027-3.641-4.713.206-2.52.771-3.79 1.609-3.618 2.529.516 5.427-2.002 7.377-6.412 1.836-4.15 1.864-4.654.383-6.914-3.401-5.192-8.825-2.341-13.127 6.898-3.397 7.295-3.21 12.031.624 15.866 2.712 2.711 3.538 2.992 7.5 2.546l4.452-.502v4.443c0 5.421 1.326 8.104 4.626 9.359 7.352 2.795 13.844-11.367 8.39-18.301-1.979-2.515-1.979-2.523 0-3.041 1.399-.366 1.984-.022 1.984 1.165 0 .926.736 2.735 1.636 4.02 1.354 1.932 2.275 2.25 5.334 1.84 2.034-.273 4.535-.028 5.558.545 1.543.863 2.408.406 5.078-2.683 3.005-3.477 3.262-3.584 3.882-1.631.826 2.603 5.01 5.444 6.931 4.707.789-.302 1.973.098 2.63.89 2.495 3.006 4.524 1.637 6.388-4.309.991-3.162 2.784-7.692 3.984-10.067l2.182-4.316-.411 6.457c-.354 5.56-.118 6.75 1.698 8.566 4.994 4.994 10.724 1.515 13.632-8.276 1.41-4.748 1.393-5.203-.24-6.397-1.474-1.078-1.963-1.006-3.02.44-.694.949-1.262 2.332-1.262 3.074s-1.012 3.243-2.25 5.559l-2.25 4.21-.306-4.221c-.168-2.321.154-6.711.717-9.754 1.15-6.224.735-8.109-2.123-9.638-1.59-.851-2.476-.601-4.526 1.277l-2.55 2.336.721-3.5c1.918-9.305 1.887-10.758-.254-11.904-1.132-.606-2.282-.738-2.556-.295-.274.444-2.133 7.307-4.13 15.253s-4.492 15.796-5.545 17.446l-1.914 3-.017-3.122c-.009-1.718 1.136-6.654 2.544-10.969 2.413-7.39 2.46-7.92.82-9.12-1.435-1.049-2.044-.999-3.462.284-1.142 1.033-1.942 1.199-2.379.492-1.165-1.885-4.568-1.138-7.058 1.548-1.332 1.438-4.348 6.5-6.702 11.25-3.812 7.692-4.317 8.315-4.616 5.689-.184-1.622.437-6.925 1.381-11.785 1.771-9.116 2.904-10.767 7.389-10.767 1.136 0 2.066-.62 2.066-1.378 0-2.027-2.729-3.94-4.599-3.223-1.211.465-1.462.203-.988-1.032.604-1.574-1.847-5.367-3.469-5.367-.41 0-1.14 1.67-1.623 3.712m-100.68-.677c-3.692.9-7.184 2.108-7.761 2.685-1.661 1.661-.654 5.802 1.37 5.641 2.053-.163 2.117.287.645 4.511-.608 1.744-1.899 3.595-2.869 4.114-1.514.81-1.693 1.978-1.266 8.229.588 8.605 1.297 10.246 5.331 12.332 2.409 1.246 3.703 1.346 6.305.487 4.148-1.369 8.899-6.26 8.436-8.685-.354-1.859-4.832-3.299-4.832-1.555 0 1.156-7.165 6.206-8.804 6.206-1.466 0-1.537-4.232-.154-9.212.895-3.223 1.519-3.799 4.744-4.381 6.008-1.084 7.429-2.136 6.141-4.544-.91-1.7-1.702-1.94-4.6-1.397-3.308.621-3.462.53-2.787-1.654 1.937-6.275 3.311-7.669 8.203-8.324 7.923-1.061 8.789-1.813 5.676-4.926-1.853-1.853-4.627-1.758-13.778.473m59.126.124c-1.278 1.287-4.561 6.343-7.296 11.235l-4.971 8.893-1-8.893c-.55-4.892-1.364-9.456-1.809-10.144-1.083-1.673-4.497-1.586-6.242.158-1.531 1.531-5.201 14.875-7.977 29.003-1.689 8.593-1.686 8.96.08 10.25 1.006.737 2.319 1.339 2.917 1.339s2.15-5.188 3.451-11.529c1.3-6.341 2.655-11.708 3.01-11.928.355-.219 1.242.949 1.972 2.597 1.401 3.166 5.057 5.197 7.601 4.221.836-.321 3.348-3.571 5.584-7.222s3.821-5.739 3.525-4.639c-1.785 6.635-2.566 11.674-2.588 16.693-.02 4.719.346 5.953 2.139 7.209 2.994 2.097 3.837 1.211 3.837-4.033 0-2.483 1.148-9.5 2.552-15.594 2.925-12.703 2.874-16.437-.256-18.503-2.007-1.325-2.412-1.246-4.529.887m-80.267.696c-3.669 2.259-11.419 10.49-13.998 14.865-1.044 1.771-4.284 4.863-7.2 6.872-5.576 3.841-6.315 5.322-3.726 7.471 1.306 1.084 1.742 1.062 2.541-.127.647-.962.749.134.309 3.323-1.036 7.518 3.701 11.328 4.963 3.991.355-2.062 1.875-6.223 3.378-9.245 2.2-4.424 3.469-5.768 6.505-6.895 2.075-.769 4.032-1.14 4.348-.823s-.369 3.098-1.522 6.182c-2.556 6.831-2.709 11.082-.431 11.957 2.291.879 2.708.223 5.743-9.031 1.462-4.458 3.303-8.958 4.092-10s1.449-2.71 1.466-3.707c.018-.997.759-4.034 1.647-6.75 1.491-4.558 1.489-5.13-.023-7.438-1.949-2.975-4.038-3.141-8.092-.645m-1.156 7.703c-4.865 4.724-4.838 6.285.087 5.049q2.344-.59 3.999-4.723c.909-2.273 1.452-4.335 1.206-4.582-.247-.246-2.628 1.669-5.292 4.256m136.268 12.106c-1.987 3.175-3.612 6.195-3.612 6.71s1.823-1.885 4.052-5.333 3.854-6.468 3.612-6.711c-.243-.242-2.066 2.158-4.052 5.334m-40.086-1.714c-.839 1.623-1.526 3.298-1.526 3.723 0 1.022 2.495-2.697 3.302-4.923 1.01-2.784-.106-2.03-1.776 1.2m11.584 16.593c-1.327 4.78-1.445 11.132-.22 11.889 1.154.713 4.121-5.537 4.075-8.583-.02-1.292-.648-3.455-1.396-4.806l-1.361-2.457zm-95.781 12.074c1.511 16.187 16.872 30.139 40.009 36.34 9.984 2.675 36.037 2.923 45.831.435 24.041-6.106 40.269-20.517 41.586-36.932l.519-6.46H179v3.562c0 5.604-4.476 13.825-10.302 18.921-5.658 4.95-16.461 9.945-24.245 11.211-6.375 1.037-22.531 1.037-28.906 0C97.007 199.679 81 185.374 81 171.822V169H65.711z"/><path fill="#1976D2" fill-opacity=".097" fill-rule="evenodd" d="M82.5 47.712c-7.193 2.892-11.911 6.626-14.265 11.287-2.218 4.393-2.259 5.078-2 33.493L66.5 121.5l7.25.294 7.25.294V62.349l2.38-2.237C88.296 55.495 92.806 55 130 55s41.704.495 46.62 5.112l2.38 2.237v59.739l7.25-.294 7.25-.294.265-29.746.265-29.747-2.521-3.993c-2.843-4.504-7.922-8.202-14.385-10.475-6.654-2.34-88.747-2.191-94.624.173m36.906 28.092C111.612 79.032 109 82.233 109 88.552c0 7.374 9.748 13.763 21 13.763 11.163 0 21-6.394 21-13.65 0-6.57-2.969-10.017-11.489-13.339-4.491-1.751-15.346-1.493-20.105.478m5.008 10.291c-1.869 2.065-1.863 2.123.455 4a8.25 8.25 0 0 0 9.908.348c2.635-1.845 2.758-2.765.652-4.872-2.33-2.329-8.707-2.026-11.015.524m53.18 43.253c-.481 2.564-1.281 3.607-3.12 4.069-2.721.683-3.29 3.027-1.039 4.287 2.542 1.422-.963 11.429-5.583 15.941-4.558 4.45-4.689 3.701-1.296-7.423 1.999-6.552 2.3-8.691 1.378-9.802-.648-.781-1.525-1.42-1.948-1.42-.422 0-2.49 4.832-4.594 10.737-3.78 10.61-8.797 18.263-11.973 18.263-2.055 0-3.473-3.48-2.796-6.863.464-2.32 1.212-3.097 3.209-3.332 3.195-.374 7.168-5.903 7.168-9.974 0-2.082-.677-3.183-2.459-3.994-3.41-1.554-6.859.864-9.888 6.931-3.287 6.585-3.902 10.7-2.206 14.759 1.572 3.764 4.354 4.948 10.056 4.283l3.497-.408v4.664c0 11.224 9.63 13.707 13.532 3.489 1.85-4.844 1.419-8.827-1.279-11.821-1.462-1.622-1.436-1.881.328-3.177 1.75-1.287 1.984-1.168 2.654 1.347.404 1.517 1.664 3.6 2.8 4.628 1.736 1.57 2.535 1.691 5.011.757 1.727-.652 3.178-.735 3.509-.201 1.247 2.019 4.529.754 6.686-2.576 2.517-3.885 3.759-4.436 3.759-1.667 0 2.245 3.028 5.155 5.364 5.155.938 0 2.796.714 4.127 1.586 2.944 1.929 4.07 1.358 4.831-2.448.773-3.862 6.742-17.138 7.706-17.138.417 0 .305 1.789-.25 3.977-2.09 8.232 1.795 15.1 7.703 13.617 4.865-1.221 9.462-15.512 5.269-16.379-1.174-.242-1.75.257-1.75 1.515 0 2.348-4.877 12.27-6.031 12.27-.469 0-.551-3.262-.181-7.25 1.108-11.968.91-14.888-1.095-16.13-1.506-.933-2.297-.576-4.75 2.146-3.36 3.728-3.492 3.19-1.397-5.699 1.357-5.758 1.356-6.593-.008-7.957-.952-.953-1.851-1.165-2.397-.567-.48.526-2.348 7.032-4.151 14.457-3.413 14.054-4.793 17.762-7.424 19.945-1.352 1.122-1.566.949-1.566-1.271 0-1.414 1.157-6.235 2.572-10.713s2.329-8.777 2.032-9.552c-.713-1.856-3.604-1.82-3.604.044 0 1.219-.475 1.181-2.938-.232-2.851-1.636-3.015-1.614-5.541.759-1.432 1.345-4.65 6.625-7.151 11.733-4.441 9.07-6.37 11.287-6.37 7.322 0-2.669 3.743-21.81 4.506-23.045.337-.545 1.86-.99 3.386-.99s3.044-.269 3.372-.598c1.23-1.229-.561-3.402-2.805-3.402-1.792 0-2.399-.629-2.643-2.741-.484-4.198-3.429-4.136-4.222.089m-123.017.808c-2.621 1.737-7.175 6.359-10.12 10.272-2.946 3.914-7.404 8.559-9.906 10.323-2.611 1.841-4.551 3.998-4.551 5.062 0 2.818 1.14 3.37 3.169 1.534 2.111-1.911 2.225-1.307.753 3.994-.897 3.232-.791 4.146.666 5.757 1.896 2.095 2.645 1.844 3.084-1.032.58-3.797 4.609-13.347 6.378-15.116 1.79-1.79 8.92-4.313 9.775-3.459.24.24-.566 2.908-1.792 5.927-2.942 7.25-3.206 12.082-.658 12.082 1.874 0 2.458-1.358 10.626-24.718 2.479-7.09 2.52-10.001.17-12.127-2.346-2.123-2.026-2.187-7.594 1.501m22.923-2.067c-8.993 2.097-11.045 4.011-8.485 7.911.865 1.317 1.101 1.32 1.931.029 1.909-2.97 2.214-.014.469 4.554-1.053 2.757-2.568 4.906-3.662 5.192-1.255.328-1.65 1.018-1.207 2.106.362.891.726 4.246.808 7.457.128 5.06.521 6.158 2.953 8.25 3.446 2.963 6.905 3.062 11.338.323 4.549-2.812 6.041-5.654 4.026-7.668-1.365-1.366-1.967-1.146-5.778 2.116-2.339 2.003-5.134 3.641-6.212 3.641-1.793 0-1.912-.52-1.402-6.14.306-3.377 1.118-6.487 1.804-6.912s3.198-1.063 5.582-1.421c3.399-.509 4.335-1.068 4.335-2.588 0-1.595-.709-1.939-4-1.939-4.459 0-4.663-.477-2.461-5.747 1.95-4.666 2.876-5.219 8.781-5.238 4.422-.014 4.793-.2 4.5-2.265-.273-1.921-.977-2.275-4.82-2.422-2.475-.095-6.3.247-8.5.761m58.231.661c-.868.963-4.028 5.942-7.022 11.067-5.972 10.219-6.709 10.238-6.709.166 0-3.219-.443-7.019-.985-8.444-1.083-2.848-4.162-4.597-4.788-2.719-.217.649-.954 1.18-1.639 1.18-1.291 0-2.096 2.839-6.166 21.754-2.959 13.747-3.008 15.862-.407 17.254 2.393 1.281 2.041 2.173 5.036-12.758 1.242-6.187 2.525-11.249 2.853-11.247.328.001 1.496 1.689 2.596 3.75 2.143 4.014 5.493 5.327 8.091 3.171.815-.676 3.092-4.109 5.06-7.628 1.969-3.52 3.736-6.243 3.927-6.051.192.191-.3 2.802-1.092 5.802-2.56 9.695-2.948 16.599-1.09 19.435.908 1.385 2.028 2.518 2.489 2.518.462 0 1.139-2.546 1.505-5.659s1.823-10.821 3.238-17.131c2.008-8.949 2.336-11.993 1.494-13.841-1.273-2.795-4.174-3.076-6.391-.619m-81.707 7.725c-2.974 3.012-5.145 5.737-4.825 6.057s2.094.203 3.941-.261c2.626-.658 3.843-1.818 5.569-5.307 3.902-7.886 2.741-8.007-4.685-.489m96.059 10.591c-2.777 4.941-2.021 6.522.859 1.797 1.803-2.958 2.667-5.863 1.742-5.863-.174 0-1.344 1.83-2.601 4.066m42.657-2.322c-2.036 2.26-7.063 12.266-6.464 12.865.251.251 2.357-2.742 4.681-6.652 4.139-6.968 4.923-9.7 1.783-6.213m-31.115 18.381c-.96 4.802-.741 12.875.349 12.875 2.964 0 5.112-10.102 2.991-14.066-1.493-2.789-2.625-2.385-3.34 1.191m-95.337 11.378c1.938 18.776 20.84 34.192 47.212 38.504 7.713 1.261 25.287 1.261 33 0 26.118-4.271 45.249-19.747 47.174-38.16l.611-5.847H179l-.01 4.25c-.028 12.141-10.896 22.853-28.789 28.374C143.835 203.588 140.332 204 130 204s-13.835-.412-20.201-2.376c-17.893-5.521-28.761-16.233-28.789-28.374L81 169H65.72z"/><path fill="#1976D2" fill-opacity=".103" fill-rule="evenodd" d="M84 48.046c-.825.472-3.075 1.566-5 2.43C75.538 52.03 67.025 59 68.59 59c.445 0 .383.427-.14.949-.571.57-.839 12.953-.671 31L68.057 121h12.998l-.085-29.487c-.046-16.218.279-30.097.723-30.843 1.334-2.24 6.134-4.895 7.418-4.102.705.436.937.318.563-.286-1.143-1.85 6.252-2.26 40.951-2.271 34.365-.011 40.881.361 39.704 2.265-.372.602-.149.731.535.308 1.388-.858 8.123 3.059 8.164 4.748.016.642.003 14.33-.027 30.418l-.056 29.25h13.108l-.082-31.117-.081-31.116-5.135-4.384c-2.825-2.41-5.612-4.386-6.195-4.389s-2.318-.662-3.855-1.464c-2.33-1.215-10.14-1.448-47-1.4-24.313.031-44.88.444-45.705.916m38.719 27.296c-.154.463-1.461.913-2.904 1s-2.435.463-2.205.836c.231.373-.421.945-1.449 1.271-1.862.591-7.309 6.059-6.682 6.709.182.188.486 1.917.676 3.842.402 4.079 6.927 11.139 9.501 10.281.611-.203 1.727.212 2.478.924 1.878 1.78 13.936 1.819 15.732.05.751-.739 1.855-1.181 2.452-.982s1.953-.344 3.013-1.206c5.62-4.57 6.43-5.726 6.81-9.733.347-3.65-.005-4.548-2.846-7.25-1.782-1.696-3.73-3.084-4.327-3.084s-.878-.338-.623-.75-.678-.819-2.072-.902-2.813-.534-3.154-1c-.805-1.103-14.034-1.108-14.4-.006m.54 10.385c-1.314 2.007-1.316 2.537-.011 4.528 1.239 1.892 2.333 2.243 6.79 2.178 4.299-.062 5.59-.493 6.76-2.255 1.239-1.867 1.247-2.477.055-4.273-1.092-1.645-2.541-2.133-6.747-2.273-4.577-.152-5.574.153-6.847 2.095M82.775 128.16c-.151.444-2.413.888-5.025.986s-4.75.555-4.75 1.016-.62.838-1.378.838-1.937.675-2.622 1.5c-.928 1.118-.944 1.5-.063 1.5.649 0 .922.419.606.931s-.118 1.213.441 1.559 1.016-.059 1.016-.9c0-.84.58-1.305 1.289-1.033 1.525.585 2.037 4.443.59 4.443-.548 0-.719.45-.379 1s.115 1-.5 1-.858.421-.54.935c.318.515-.463 1.977-1.736 3.25-2.903 2.903-3.228 3.885-1.616 4.882 1.02.63 1.032 1.331.056 3.473-.904 1.983-.932 3.035-.107 4.028.613.739.825 1.814.47 2.388s-.199 1.044.347 1.044c.545 0 1.268.873 1.607 1.94.52 1.639 1.378 1.889 5.524 1.607 3.908-.266 5.401-.907 7.329-3.149 1.961-2.28 2.208-3.159 1.297-4.617-.766-1.226-1.257-1.404-1.539-.558-.437 1.312-5.324 5.479-5.853 4.991-.171-.157-1.046.45-1.945 1.35-1.514 1.513-1.77 1.46-3.443-.715-2.019-2.626-2.324-4.438-.895-5.322.526-.325.701-1.257.388-2.072-.312-.814-.012-2.15.667-2.968.678-.818.854-1.487.389-1.487s.156-.701 1.379-1.558 2.674-1.28 3.223-.941.998.132.998-.461c0-.634.974-.834 2.364-.485q2.364.593 2.927-.87c.68-1.773-5.275-3.329-6.313-1.649-.426.69-1.102.519-1.939-.489-.939-1.132-.967-1.547-.102-1.547.649 0 .922-.419.606-.931s-.138-1.201.397-1.532.719-1.262.409-2.069c-.313-.817.002-1.468.711-1.468.7 0 .989-.285.641-.633-1.028-1.027 3.985-4.425 5.609-3.802.818.314 1.785.091 2.148-.497.363-.587 1.871-1.104 3.351-1.147s2.126-.307 1.435-.585c-.691-.279-1.073-.806-.85-1.171.224-.366-1.112-.698-2.969-.739s-3.499.29-3.65.734M136 129.5c-.736 1.375-1.738 2.5-2.228 2.5s-.654.382-.366.849-.333 1.768-1.38 2.893c-1.048 1.125-1.633 2.318-1.299 2.652.333.333.055.606-.619.606s-.99.382-.702.849-.333 1.768-1.38 2.893c-1.048 1.125-1.633 2.318-1.299 2.652.333.333.081.606-.56.606-.642 0-1.167.675-1.167 1.5s-.874 1.5-1.942 1.5c-1.789 0-1.897-.538-1.367-6.859.386-4.604.203-7.088-.558-7.559-.623-.385-1.133-1.588-1.133-2.672s-.633-2.216-1.406-2.512c-1.635-.628-5.747 2.545-4.957 3.824.294.476.008 1.501-.637 2.278s-.901 1.851-.57 2.387.138 1.262-.43 1.613-.793 1.026-.5 1.5.074 1.145-.487 1.492-.745 1.728-.408 3.069c.387 1.542.182 2.439-.556 2.439-.642 0-.877.47-.522 1.044s.119 1.677-.524 2.452c-.642.774-.888 2.292-.545 3.372s.148 2.258-.434 2.617c-.581.359-.786 1.092-.454 1.628.331.536.166 1.517-.367 2.181-1.468 1.828-.307 7.683 1.394 7.03.765-.293 1.143-.936.838-1.429-.304-.492-.046-.895.573-.895.655 0 .872-.802.519-1.916-.335-1.054-.122-2.216.473-2.584s.82-1.493.5-2.5-.133-2.109.416-2.448.761-1.231.472-1.983c-.288-.752-.025-1.675.585-2.052.609-.377.835-1.547.5-2.601s-.17-1.916.366-1.916.738-.9.451-2c-.402-1.535-.031-2 1.593-2 1.716 0 2.918 2.05 1.906 3.25-.116.137.865 1.488 2.181 3 2.812 3.235 5.998 3.589 6.74.75.288-1.1.921-2 1.407-2 .485 0 .883-.675.883-1.5s.477-1.5 1.059-1.5.781-.45.441-1-.141-1 .441-1 1.01-.338.951-.75c-.24-1.662 1.386-5.143 2.624-5.618 1.618-.621 2.971 2.449 1.484 3.368-.587.363-.779 1.411-.427 2.33.365.951.156 1.67-.485 1.67-.702 0-.89.942-.499 2.5.345 1.375.208 2.5-.306 2.5-.513 0-.99 1.463-1.06 3.25a255 255 0 0 1-.258 5.25c-.178 2.728.513 5.561 1.348 5.527a54 54 0 0 1 1.706-.027c.589 0 .753-1.06.388-2.513-.348-1.388-.113-3.136.524-3.904.655-.789.873-2.517.504-3.987-.4-1.591-.235-2.596.425-2.596.593 0 .836-.629.54-1.399-.295-.769-.037-1.707.573-2.084.609-.377.847-1.51.527-2.517s-.106-2.126.476-2.485c.581-.359.786-1.092.454-1.628-.331-.536-.186-1.517.323-2.181 2.068-2.695-.016-11.706-2.706-11.706-.39 0-1.311 1.125-2.047 2.5m42.618-1.053c.694 1.809-2.601 6.474-4.618 6.537-.99.031-1.12.297-.385.781 1.573 1.036 2.763 5.235 1.484 5.235-.57 0-.795.629-.499 1.399.295.769.075 1.684-.488 2.032-.564.348-.771 1.294-.461 2.101.309.807.038 1.468-.603 1.468s-.888.45-.548 1 .13 1-.466 1-1.502 1.101-2.014 2.448-2.076 3.198-3.475 4.115c-2.887 1.891-3.225 3.628-1.056 5.428.819.68 1.266 1.596.994 2.037-.273.441.038.979.691 1.197.775.258.896 1.067.348 2.335-.461 1.067-.747 2.503-.636 3.19.111.688-.343 1.25-1.009 1.25s-.948.263-.627.583c.915.915-2.605 4.123-3.994 3.64-.685-.238-1.015-.804-.734-1.259s.053-1.108-.506-1.454c-1.343-.83-1.306-5.213.052-6.052.588-.363.805-1.347.483-2.186s-.073-2.143.554-2.899c.627-.755.828-1.373.446-1.373s-.046-.648.747-1.44c.792-.793 1.314-2.591 1.16-3.996-.155-1.406.11-2.797.587-3.092s.614-1.197.304-2.004c-.309-.807-.017-1.468.651-1.468s.972-.631.676-1.402-.26-1.681.08-2.021.684-1.396.764-2.347.476-2.742.88-3.98.367-2.243-.083-2.235c-1.202.023-3.501 1.608-3.402 2.347.047.351.052.751.011.888s-.278 1.355-.526 2.707-.947 2.763-1.553 3.138c-.607.375-.844 1.101-.526 1.615.317.513.01 2.026-.683 3.362-.693 1.335-1.233 2.751-1.199 3.146.034.394-.722 1.632-1.679 2.75-.957 1.117-1.441 2.032-1.076 2.032.366 0-.379 1.111-1.655 2.469s-2.704 2.232-3.174 1.941c-.47-.29-.855-.114-.855.392 0 .507-1.12.707-2.488.445-1.369-.262-2.242-.874-1.941-1.361s.07-.886-.512-.886-1.059-1.35-1.059-3 .45-3 1-3 .888-.562.75-1.25c-.148-.739.771-1.237 2.25-1.218 3.029.038 4.684-1.424 5.559-4.911.362-1.442 1.009-2.621 1.438-2.621 1.497 0 .488-3.512-1.478-5.146-1.865-1.55-2.169-1.492-5.178 1-1.758 1.455-3.229 3.209-3.269 3.896-.04.688-.426 1.25-.859 1.25s-.861.972-.95 2.16c-.09 1.188-.575 2.426-1.079 2.75-.503.325-.863 2.615-.8 5.09.085 3.276.689 4.965 2.224 6.211 2.176 1.766 9.392 3.107 9.392 1.745 0-.423.909-.531 2.021-.24 1.516.396 1.754.85.954 1.815-.588.707-.884 2.34-.66 3.627.601 3.454 2.841 9.019 3.403 8.457.268-.268 1.454-.152 2.635.258 1.581.549 2.735.132 4.379-1.582 1.228-1.28 2.241-2.544 2.25-2.809.01-.265.057-.595.105-.732.576-1.659.283-9.75-.353-9.75-.469 0-.598-.412-.287-.915s.053-1.085-.573-1.294c-1.511-.503-.137-4.825 1.437-4.521 1.503.291 3.809 3.344 4.119 5.454.288 1.964 3.242 2.522 5.879 1.111 1.448-.775 2.165-.696 2.803.312.471.744.871.903.888.353s.461-.325.987.5c.814 1.276 1.188 1.171 2.507-.701.853-1.21 2.194-2.844 2.981-3.631s1.114-1.757.727-2.157c-.386-.401.198-.559 1.298-.353s2.005 1.134 2.012 2.062c.012 1.765 3.195 5.1 5.277 5.53.666.137 1.211-.269 1.211-.903s.787-.276 1.75.795c2.238 2.491 5.582 1.979 4.724-.723-.354-1.117-.138-1.919.518-1.919.619 0 .867-.419.551-.931-.317-.512-.111-1.218.457-1.569s.774-1.057.457-1.569c-.316-.512-.072-.931.543-.931s.84-.45.5-1-.066-1 .608-1 .945-.281.602-.624c-.701-.7 2.741-7.918 4.207-8.824 1.29-.798 2.375 1.166 1.461 2.645-1.037 1.679-1.218 12.803-.208 12.803.457 0 .83.702.83 1.559 0 .889.478 1.264 1.112.872.611-.378 1.453-.134 1.871.541 1.436 2.323 7.154-4.589 8.059-9.74.07-.403.548-1.237 1.06-1.855 1.315-1.584.025-4.363-1.715-3.695-.891.342-1.217 1.277-.849 2.436.33 1.04.119 1.882-.471 1.882-.587 0-1.014.338-.949.75s.009 1.088-.125 1.5a19 19 0 0 0-.403 1.5c-.539 2.519-2.945 5.25-4.625 5.25-1.658 0-1.965-.693-1.965-4.441 0-2.443.408-4.693.906-5.001s.663-1.489.366-2.625.047-3.16.763-4.499c1.075-2.007 1.068-2.872-.035-4.934-.736-1.375-1.712-2.5-2.169-2.5-1.183 0-4.765 3.732-4.162 4.336.276.276-.409.99-1.523 1.586-2.01 1.076-4.13-.196-2.256-1.354.507-.313.687-1.47.399-2.569-.303-1.162-.03-1.999.653-1.999.647 0 .886-.47.531-1.044s-.229-1.586.28-2.25c.777-1.013.861-3.039.328-7.956-.044-.412-.558-.75-1.14-.75s-.781.45-.441 1 .089 1-.558 1c-.683 0-.956.837-.653 1.999.288 1.099.135 2.239-.339 2.532s-.609 1.194-.299 2.001c.309.807.035 1.468-.611 1.468-.703 0-.93.77-.567 1.916.335 1.054.16 2.193-.389 2.532-.548.339-.743 1.277-.433 2.084.309.807.035 1.468-.611 1.468-.703 0-.93.77-.567 1.916.335 1.054.16 2.193-.389 2.532-.548.339-.743 1.277-.433 2.084.309.807.037 1.468-.607 1.468-.643 0-1.042.787-.886 1.75.351 2.162-3.162 8.25-4.76 8.25-1.624 0-2.36-5.97-1.109-9 .567-1.375.94-3.062.828-3.75-.113-.687.292-1.25.898-1.25s.844-.419.528-.931c-.317-.512-.138-1.201.397-1.532s.719-1.262.409-2.069c-.309-.807-.079-1.468.513-1.468.591 0 .816-.675.5-1.5-.317-.825-1.229-1.5-2.028-1.5s-1.174.45-.834 1c.974 1.575-3.118 1.166-4.455-.446-1.013-1.221-1.695-.87-4.371 2.25-1.744 2.033-3.621 4.027-4.172 4.431s-.595.741-.097.75c.498.008.159.839-.752 1.846-.912 1.007-1.356 2.132-.989 2.5s.144.669-.497.669c-.642 0-1.078.338-.969.75.338 1.278-1.288 5.25-2.149 5.25-.449 0-1.051.9-1.339 2-.866 3.311-2.413 2.261-3.112-2.112-.402-2.514-.225-4.632.455-5.452.612-.737.82-2.262.462-3.388-.394-1.243-.204-2.048.485-2.048.663 0 .882-.796.527-1.916-.335-1.054-.122-2.216.473-2.584s.808-1.53.473-2.584c-.353-1.114-.136-1.916.519-1.916.619 0 .879-.399.578-.887-.755-1.222 2.097-3.437 3.394-2.635.578.357 1.755-.054 2.615-.914 1.418-1.419 1.379-1.564-.426-1.564-3.752 0-5.339-1.071-3.993-2.693.96-1.157.914-1.648-.224-2.368-2.096-1.326-2.95-1.139-2.318.508M60 128.708c-3.453 1.009-6.456 2.979-10.318 6.77-2.254 2.212-4.029 4.286-3.944 4.609.084.322-1.123 1.984-2.683 3.692-1.561 1.708-2.65 3.293-2.422 3.521.229.228-.271.984-1.109 1.68s-1.524.967-1.524.602-1.207.456-2.682 1.824-3.05 2.26-3.5 1.981-.818.395-.818 1.495c0 2.661 1.617 3.555 2.462 1.362.638-1.655.723-1.655 1.659.014.543.967.656 2.294.251 2.949-.633 1.024-.802 3.898-.463 7.852.05.582.548.776 1.107.431s.758-1.047.441-1.559c-.316-.512-.113-.931.453-.931.565 0 .768-.675.452-1.5-.317-.825-.092-1.5.5-1.5.591 0 .816-.675.5-1.5-.317-.825-.051-1.5.59-1.5s.888-.45.548-1-.156-1 .41-1c.565 0 .768-.675.452-1.5-.326-.849-.024-1.5.698-1.5.7 0 .989-.285.641-.633-.609-.608 4.426-5.166 5.06-4.581.171.157 1.001-.406 1.846-1.25.845-.845 2.066-1.504 2.714-1.466 1.854.111 5.33 1.781 3.87 1.86-.72.038-1.031.52-.691 1.07s.156 1-.41 1c-.565 0-.768.675-.452 1.5.317.825.051 1.5-.59 1.5s-.888.45-.548 1 .21 1-.289 1-.947 1.419-.996 3.152-.634 3.489-1.298 3.899c-.665.411-.925 1.487-.578 2.391.499 1.299 1.047 1.422 2.609.586 1.165-.624 1.743-1.669 1.408-2.543-.314-.817-.024-1.485.644-1.485s.955-.674.638-1.5c-.316-.825-.153-1.5.362-1.5s.678-.675.362-1.5c-.317-.826-.03-1.5.638-1.5s.955-.674.638-1.5c-.316-.825-.064-1.5.56-1.5s.839-.296.477-.658-.156-1.262.456-2c.613-.738.802-1.342.42-1.342s.048-.742.955-1.649 1.431-2.482 1.165-3.5-.049-1.851.482-1.851.687-.45.347-1-.111-1 .508-1c.672 0 .87-.808.492-2-.349-1.1-.232-2 .259-2 .976 0 .407-5.804-.624-6.377-.349-.194-1.31-.156-2.135.085m-1 2.17c0 .617-.48 1.122-1.067 1.122-1.63 0-7.667 6.225-8.37 8.632-.764 2.614 1.429 3.702 4.845 2.403 2.661-1.012 5.793-4.901 4.991-6.198-.284-.46-.093-.837.425-.837 1.61 0 2.045-3.864.573-5.086-1.011-.839-1.397-.849-1.397-.036m91.882 12.872a5.7 5.7 0 0 0 0 1.5c.065.412-.359.75-.941.75s-.781.45-.441 1 .115 1-.5 1-.84.45-.5 1 .086 1-.563 1c-.885 0-.871.375.054 1.489 1.241 1.496 3.487 1.093 2.531-.453-.281-.455.19-1.095 1.047-1.424s1.278-1.051.935-1.605-.097-1.007.544-1.007.918-.646.615-1.435c-.303-.79-.013-1.654.643-1.921.657-.268.182-.522-1.056-.565s-2.303.259-2.368.671m41.118.643c0 .766-.704 1.663-1.563 1.993-.86.33-1.284 1.053-.941 1.607.342.554.119 1.007-.496 1.007s-.84.45-.5 1 .066 1-.608 1-.947.279-.606.619c.34.341-.035 1.273-.834 2.071-1.44 1.44-2.036 5.31-.818 5.31 1.149 0 5.263-5.358 4.75-6.188-.276-.446-.025-.812.557-.812s1.059-.675 1.059-1.5.477-1.5 1.059-1.5.805-.412.494-.915-.039-1.09.603-1.304c2.043-.681 1.842-3.781-.244-3.781-1.052 0-1.912.627-1.912 1.393M67.757 174.75c-.269 3.162-.1 5.9.377 6.083.476.184.866.921.866 1.638 0 1.807 6.846 11.596 9.811 14.029 1.34 1.1 5.194 3.674 8.563 5.72s6.586 4.105 7.148 4.576 1.534.685 2.16.477 1.729.251 2.449 1.022 2.044 1.211 2.94.976c.897-.234 2.268.211 3.047.989.813.814 3.522 1.448 6.37 1.491 2.725.041 5.117.564 5.316 1.162.236.707 4.844 1.087 13.196 1.087s12.96-.38 13.196-1.087c.199-.598 2.591-1.121 5.316-1.162 2.848-.043 5.557-.677 6.37-1.491.779-.778 2.15-1.223 3.047-.989.896.235 2.22-.205 2.94-.976s1.822-1.231 2.449-1.022c.626.208 1.598-.006 2.16-.477s3.779-2.53 7.148-4.576 7.199-4.62 8.512-5.72c3.106-2.604 8.862-10.525 8.862-12.197 0-.717.477-1.303 1.059-1.303s.8-.419.484-.931-.231-1.143.191-1.403c.421-.26.612-2.991.423-6.069l-.342-5.597h-13.069l.479 4.989c.309 3.22.013 5.655-.838 6.868-.724 1.034-1.043 2.154-.709 2.488.335.334-.129.891-1.029 1.236-.901.346-1.422.977-1.159 1.402.639 1.035-8.363 9.383-12.333 11.436-1.736.898-3.157 1.364-3.157 1.035 0-.328-.733.136-1.629 1.032s-2.217 1.403-2.935 1.128c-.719-.276-1.453-.064-1.631.471s-1.67 1.072-3.315 1.194c-1.644.121-3.294.644-3.666 1.16-.373.519-7.902.939-16.824.939s-16.451-.42-16.824-.939c-.372-.516-2.022-1.039-3.666-1.16-1.645-.122-3.137-.659-3.315-1.194s-.912-.747-1.631-.471c-.718.275-1.937-.087-2.709-.806-.771-.72-2.067-1.449-2.879-1.622-3.96-.841-17.965-13.531-16.523-14.972.262-.262-.154-1.377-.925-2.478-.968-1.382-1.224-3.509-.826-6.869l.577-4.867H68.248z"/></svg>